# xmcd
#
# Track frame offsets:
#	150
#	22225
#	46332
#	66412
#	88849
#	113658
#	140655
#	163452
#	183311
#	207698
#	226460
#	253102
#	276569
#	300186
#	316344
#
# Disc length: 4494 seconds
#
# Revision: 1
# Processed by: cddbd v1.4PL0 Copyright (c) Steve Scherf et al.
# Submitted via: EasyCDDAExtractor 5.0.7
#
DISCID=e8118c0f
DTITLE=Maná - Lo Mejor de lo Mejor
DYEAR=1900
DGENRE=country
TTITLE0=Mariposa traicionera
TTITLE1=Sabanas frias
TTITLE2=No voy a ser ty escravo
TTITLE3=Angel de amor
TTITLE4=Ay doctor
TTITLE5=Hundido em un rincon
TTITLE6=El reloj cuco
TTITLE7=Dejame entrar
TTITLE8=No ha parado de llover
TTITLE9=Como dueles em los labios
TTITLE10=En el muelle de San Blas
TTITLE11=Como te extraño corazon
TTITLE12=Clavado en un bar
TTITLE13=Te solte la rienda (umplugged)
TTITLE14=Corazon Espinado - a duo com Santana
EXTD=
EXTT0=
EXTT1=
EXTT2=
EXTT3=
EXTT4=
EXTT5=
EXTT6=
EXTT7=
EXTT8=
EXTT9=
EXTT10=
EXTT11=
EXTT12=
EXTT13=
EXTT14=
PLAYORDER=
